<?xml version="1.0" encoding="UTF-8" standalone="no"?>
<svg
    xmlns:dc="http://purl.org/dc/elements/1.1/"
    xmlns:cc="http://creativecommons.org/ns#"
    xmlns:rdf="http://www.w3.org/1999/02/22-rdf-syntax-ns#"
    xmlns="http://www.w3.org/2000/svg"
    id="svg8"
    version="1.1"
    viewBox="0 0 210 209.99999"
    height="595.27557pt"
    width="595.27557pt">
    <defs
        id="defs2" />
    <metadata
        id="metadata5">
        <rdf:RDF>
            <cc:Work
                rdf:about="">
                <dc:format>image/svg+xml</dc:format>
                <dc:type
                    rdf:resource="http://purl.org/dc/dcmitype/StillImage" />
                <dc:title></dc:title>
            </cc:Work>
        </rdf:RDF>
    </metadata>
    <g
        transform="translate(0,-87.000016)"
        id="layer1">
        <rect
            y="86.845238"
            x="0.37797725"
            height="210.53273"
            width="210.53273"
            id="rect5071"
            style="opacity:1;fill:#000000;stroke-width:0.34272769" />
        <flowRoot
            transform="matrix(0.26458333,0,0,0.26458333,0,87.000016)"
            style="font-style:normal;font-weight:normal;font-size:40px;line-height:1.25;font-family:'Percolator Expert TM';letter-spacing:0px;word-spacing:0px;fill:#000000;fill-opacity:1;stroke:none;-inkscape-font-specification:'Percolator Expert TM';font-stretch:normal;font-variant:normal;"
            id="flowRoot5073"
            xml:space="preserve"><flowRegion
         style="-inkscape-font-specification:'Percolator Expert TM';font-family:'Percolator Expert TM';font-weight:normal;font-style:normal;font-stretch:normal;font-variant:normal;"
         id="flowRegion5075"><rect
           style="-inkscape-font-specification:'Percolator Expert TM';font-family:'Percolator Expert TM';font-weight:normal;font-style:normal;font-stretch:normal;font-variant:normal;"
           y="120.84361"
           x="84.285713"
           height="595.71429"
           width="645.71429"
           id="rect5077" /></flowRegion>
            <flowPara
                style="line-height:3.25;font-size:218.66667196px"
                id="flowPara5079">PS</flowPara></flowRoot>
        <path
            id="path857"
            transform="matrix(0.26458333,0,0,0.26458333,0,87.000016)"
            d="M 88.857422 86.492188 C 75.011111 86.799307 61.74146 92.480527 49.046875 103.53711 C 48.17327 110.08915 47.736328 115.113 47.736328 118.60742 C 53.414766 115.54981 58.219165 114.01953 62.150391 114.01953 C 69.576041 114.01953 73.726004 119.91727 74.599609 131.71094 L 74.599609 161.19531 L 74.599609 499.28125 C 74.599609 518.50058 71.323527 530.73101 64.771484 535.97266 C 60.840259 539.46708 51.885896 541.21289 37.908203 541.21289 L 37.908203 562.17969 L 175.5 562.17969 L 175.5 541.21289 C 161.52231 541.21289 152.56794 539.46708 148.63672 535.97266 C 142.08467 530.73101 138.80859 518.50058 138.80859 499.28125 L 138.80859 150.71094 C 138.80859 129.3076 146.89103 115.98579 163.05273 110.74414 C 168.29437 108.99694 180.74231 108.12305 200.39844 108.12305 C 241.02111 108.12305 272.4711 113.58384 294.74805 124.50391 C 337.99153 145.90727 359.61328 187.18549 359.61328 248.33789 C 359.61328 349.23936 318.33504 399.68945 235.7793 399.68945 C 212.62874 399.68945 186.42009 395.75893 157.1543 387.89648 C 166.76396 393.13811 176.37471 398.16001 185.98438 402.96484 C 203.89329 411.26411 222.6759 415.41406 242.33203 415.41406 C 295.18518 415.41406 339.08311 399.69006 374.02734 368.24023 C 408.97162 336.35362 424.91503 297.69508 421.85742 252.26758 C 413.99492 141.75646 341.04926 86.501953 203.01953 86.501953 C 143.61434 86.938741 106.48606 86.938741 91.634766 86.501953 C 90.706559 86.474652 89.780509 86.471713 88.857422 86.492188 z M 583.08398 87.15625 C 542.02451 87.15625 507.95482 95.456162 480.87305 112.05469 C 454.22806 128.21638 440.9043 148.74674 440.9043 173.64453 C 440.9043 211.20956 469.29765 240.47486 526.08203 261.44141 L 618.46484 295.51172 C 641.17859 303.81098 659.52425 314.7306 673.50195 328.27148 C 687.91644 341.81237 695.34248 355.35364 695.7793 368.89453 C 696.21608 391.17147 685.51398 412.57573 663.67383 433.10547 C 642.27049 454.07202 618.46404 464.99163 592.25586 465.86523 C 545.08116 467.61243 509.48315 464.55386 485.45898 456.69141 C 501.6207 468.92188 519.52943 476.56736 539.18555 479.625 C 562.77292 483.11943 587.45129 484.42831 613.22266 483.55469 C 656.90296 481.80749 692.50292 466.95733 720.02148 439.00195 C 746.66647 412.79378 760.20774 381.3438 760.64453 344.65234 C 761.08134 324.55942 754.09222 305.77681 739.67773 288.30469 C 723.51602 269.08536 700.36595 254.88966 670.22656 245.7168 L 571.94531 215.57617 C 527.39141 202.03528 505.11523 180.85049 505.11523 152.02148 C 505.11523 139.79101 513.63266 129.30832 530.66797 120.57227 C 547.70328 111.83619 568.2317 107.46875 592.25586 107.46875 C 625.45289 107.46875 649.04183 111.61675 663.01953 119.91602 C 682.23886 130.83608 692.50404 152.02283 693.81445 183.47266 L 740.98828 183.47266 L 740.98828 96.984375 L 718.71094 96.984375 L 718.71094 117.29688 C 709.10129 108.12401 690.53812 100.69797 663.01953 95.019531 C 637.68495 89.777881 611.03936 87.15625 583.08398 87.15625 z "
            style="font-style:normal;font-variant:normal;font-weight:normal;font-stretch:normal;font-size:medium;line-height:1.25;font-family:'Percolator Expert TM';-inkscape-font-specification:'Percolator Expert TM';letter-spacing:0px;word-spacing:0px;fill:#ffffff;fill-opacity:1;stroke:none;stroke-width:16.38010788" />
        <path
            id="path862"
            transform="matrix(0.26458333,0,0,0.26458333,0,87.000016)"
            d="M 205.38867 541.13672 L 205.38867 708.06641 L 300.77734 708.06641 L 300.77734 684.21875 L 229.23633 684.21875 L 229.23633 636.52539 L 300.77734 636.52539 L 300.77734 612.67773 L 229.23633 612.67773 L 229.23633 564.98438 L 300.77734 564.98438 L 300.77734 541.13672 L 205.38867 541.13672 z M 300.77734 564.98438 L 300.77734 612.67773 L 324.625 612.67773 L 324.625 564.98438 L 300.77734 564.98438 z M 300.77734 636.52539 L 300.77734 684.21875 L 324.625 684.21875 L 324.625 636.52539 L 300.77734 636.52539 z M 398.40039 541.13672 L 398.40039 564.98438 L 422.24805 564.98438 L 422.24805 541.13672 L 398.40039 541.13672 z M 519.87305 541.13672 L 519.87305 588.83008 L 496.02539 588.83008 L 496.02539 612.67773 L 519.87305 612.67773 L 519.87305 684.21875 L 543.71875 684.21875 L 543.71875 612.67773 L 591.41406 612.67773 L 591.41406 588.83008 L 543.71875 588.83008 L 543.71875 541.13672 L 519.87305 541.13672 z M 543.71875 684.21875 L 543.71875 708.06641 L 591.41406 708.06641 L 591.41406 684.21875 L 543.71875 684.21875 z M 591.41406 684.21875 L 615.25977 684.21875 L 615.25977 660.37109 L 591.41406 660.37109 L 591.41406 684.21875 z M 374.55469 588.83008 L 374.55469 612.67773 L 398.40039 612.67773 L 398.40039 684.21875 L 374.55469 684.21875 L 374.55469 708.06641 L 446.0957 708.06641 L 446.0957 684.21875 L 422.24805 684.21875 L 422.24805 588.83008 L 374.55469 588.83008 z M 665.18945 588.83008 L 665.18945 612.67773 L 760.57812 612.67773 L 760.57812 588.83008 L 665.18945 588.83008 z M 665.18945 612.67773 L 641.34375 612.67773 L 641.34375 636.52539 L 665.18945 636.52539 L 665.18945 612.67773 z M 665.18945 636.52539 L 665.18945 660.37109 L 736.73242 660.37109 L 736.73242 636.52539 L 665.18945 636.52539 z M 736.73242 660.37109 L 736.73242 684.21875 L 760.57812 684.21875 L 760.57812 660.37109 L 736.73242 660.37109 z M 736.73242 684.21875 L 641.34375 684.21875 L 641.34375 708.06641 L 736.73242 708.06641 L 736.73242 684.21875 z "
            style="font-style:normal;font-variant:normal;font-weight:normal;font-stretch:normal;font-size:96px;line-height:1.25;font-family:'Coder\'s Crux';-inkscape-font-specification:'Coder\'s Crux';letter-spacing:0px;word-spacing:0px;fill:#ff6600;fill-opacity:1;stroke:none;stroke-width:3.97451377" />
    </g>
</svg>
